{"title":"Robot Chicken S08E19 1080p AS WEBRip AAC2 0 H 264-monkee mkv","uid":14636824,"size":693877834,"categoryP":"video","categoryS":"hd___tv_shows","magnet":"?xt=urn:btih:6f1913640bb08711af2f162025c5faaf5388806b&amp;dn=Robot+Chicken+S08E19+1080p+AS+WEBRip+AAC2+0+H+264-monkee+mkv&amp;tr=udp%3A%2F%2Ftracker.leechers-paradise.org%3A6969&amp;tr=udp%3A%2F%2Fzer0day.ch%3A1337&amp;tr=udp%3A%2F%2Fopen.demonii.com%3A1337&amp;tr=udp%3A%2F%2Ftracker.coppersurfer.tk%3A6969&amp;tr=udp%3A%2F%2Fexodus.desync.com%3A6969","seeders":1,"leechers":0,"uploader":"Anon_up","files":1,"time":1463461824,"description":"[center][img]https://i.imgur.com/p94fYT2.png[/img]\r\n\r\nScreenShots\r\n[img]https://i.imgur.com/TpKYtVy.jpg[/img]\r\n\r\nInfo[quote]\r\n\r\nTorrent by RnC\r\n\r\nUse Torrent\r\nand a client that supports HTTPS Seeding\r\nSeed for long to keep it alive\r\n[/quote]\r\n\r\n\r\n\r\n[spoiler=&quot;MediaInfo&quot;]\r\n\r\nGeneral \r\nUnique ID : 220310767811094867626484702313293098703 (0xA5BE4F7B9B394DFE872B8B85B60D2ECF) \r\nComplete name : Robot.Chicken.S08E19.The.Angelic.Sounds.of.Mike.Giggling.1080p.AS.WEBRip.AAC2.0.H.264-monkee.mkv \r\nFormat : Matroska \r\nFormat version : Version 4 / Version 2 \r\nFile size : 662 MiB \r\nDuration : 11mn 8s \r\nOverall bit rate : 8 310 Kbps \r\nEncoded date : UTC 2016-05-16 18:16:29 \r\nWriting application : mkvmerge v7.9.0 ('Birds') 32bit \r\nWriting library : libebml v1.3.1 + libmatroska v1.4.2 \r\n\r\nVideo \r\nID : 1 \r\nFormat : AVC \r\nFormat/Info : Advanced Video Codec \r\nFormat profile :    \r\nFormat settings, CABAC : Yes \r\nFormat settings, ReFrames : 2 frames \r\nCodec ID : V_MPEG4/ISO/AVC \r\nDuration : 11mn 8s \r\nBit rate mode : Constant \r\nBit rate : 8 500 Kbps \r\nWidth : 1 920 pixels \r\nHeight : 1 080 pixels \r\nDisplay aspect ratio : 16:9 \r\nFrame rate mode : Constant \r\nFrame rate : 29.970 (30000/1001) fps \r\nColor space : YUV \r\nChroma subsampling : 4:2:0 \r\nBit depth : 8 bits \r\nScan type : Progressive \r\nBits/(Pixel*Frame) : 0.137 \r\nStream size : 651 MiB (98%) \r\nDefault : Yes \r\nForced : No \r\n\r\nAudio \r\nID : 2 \r\nFormat : AAC \r\nFormat/Info : Advanced Audio Codec \r\nFormat profile : LC \r\nCodec ID : A_AAC \r\nDuration : 11mn 8s \r\nBit rate : 126 Kbps \r\nChannel(s) : 2 channels \r\nChannel positions : Front: L R \r\nSampling rate : 44.1 KHz \r\nFrame rate : 43.066 fps (1024 spf) \r\nCompression mode : Lossy \r\nDelay relative to video : -23ms \r\nStream size : 10.0 MiB (2%) \r\nDefault : Yes \r\nForced : No \r\n\r\nText \r\nID : 3 \r\nFormat : UTF-8 \r\nCodec ID : S_TEXT/UTF8 \r\nCodec ID/Info : UTF-8 Plain Text \r\nDuration : 10mn 52s \r\nBit rate : 106 bps \r\nCount of elements : 460 \r\nStream size : 8.45 KiB (0%) \r\nLanguage : English \r\nDefault : No \r\nForced : No \r\n\r\n\r\n\r\n[/spoiler]\r\n\r\nIf you like my uploads\r\n[color=orange]Donate Bitcoin :[/color] [color=green]1PWLan3jUdKdofaXUuRHMEM6m17E9v2fP6[/color]\r\n\r\n[/center]","torrent":{"xt":"urn:btih:6f1913640bb08711af2f162025c5faaf5388806b","amp;dn":"Robot+Chicken+S08E19+1080p+AS+WEBRip+AAC2+0+H+264-monkee+mkv","amp;tr":["udp%3A%2F%2Ftracker.leechers-paradise.org%3A6969","udp%3A%2F%2Fzer0day.ch%3A1337","udp%3A%2F%2Fopen.demonii.com%3A1337","udp%3A%2F%2Ftracker.coppersurfer.tk%3A6969","udp%3A%2F%2Fexodus.desync.com%3A6969"],"infoHash":"6f1913640bb08711af2f162025c5faaf5388806b","infoHashBuffer":{"type":"Buffer","data":[111,25,19,100,11,176,135,17,175,47,22,32,37,197,250,175,83,136,128,107]},"announce":[],"urlList":[]}}